<svg xmlns="http://www.w3.org/2000/svg" viewBox="0 0 88 88"><path d="M0 44V0h88v88H0z" fill="#f8f9fa"/><path d="M3.636 84.364c-3.941-3.942-3.74-10.258.44-13.775C5.77 69.165 7.57 68 8.077 68S9 64.839 9 60.975c0-6.494-.181-7.093-2.399-7.937C3.203 51.746 1 48.158 1 43.912c0-7.408 7.294-11.88 13.849-8.49C18.538 37.329 20 39.765 20 44c0 4.2-1.458 6.668-5.03 8.515-2.848 1.473-2.97 1.813-2.964 8.26.006 6.42.142 6.802 3 8.429 1.647.937 3.517 2.85 4.155 4.25C20.237 75.816 20.809 76 27.06 76c6.632 0 6.775-.056 8.787-3.468 1.154-1.954 3.16-3.747 4.6-4.108 2.428-.61 2.552-.976 2.552-7.557 0-6.251-.216-7-2.25-7.777-4.896-1.872-7.65-7.593-5.887-12.23.901-2.37.257-3.27-8.695-12.141L16.5 19.138l-4.546.538c-3.914.463-4.992.163-7.75-2.158C1.519 15.258 1 14.13 1 10.548 1 4.59 4.59 1 10.547 1c3.583 0 4.712.519 6.971 3.204 2.321 2.758 2.621 3.836 2.158 7.75l-.538 4.546 9.58 9.668c8.818 8.898 9.783 9.592 12.106 8.709 6.039-2.296 12.63 2.453 12.63 9.1 0 4.178-2.358 7.642-6.204 9.113-2.029.776-2.25 1.53-2.25 7.666 0 6.598.089 6.839 2.912 7.905 3.832 1.446 6.461 6.537 5.64 10.917-1.656 8.824-15.415 10.172-18.59 1.821C34.118 79.181 33.519 79 27.025 79c-3.864 0-7.025.415-7.025.923s-1.165 2.308-2.589 4c-3.517 4.18-9.833 4.382-13.775.44zm11.614-2.171c2.21-1.899 2.262-6.97.095-9.364C12.09 69.232 4.827 71.24 3.883 76c-.644 3.246 1.146 6.843 3.865 7.769 3.063 1.042 4.904.655 7.502-1.576zm34-.39C53.016 77.446 49.882 71 44 71c-3.47 0-7 3.06-7 6.066 0 6.97 7.733 9.96 12.25 4.736zM15 49c2.571-2.571 2.571-7.429 0-10-4.206-4.206-11.333-1.062-11.333 5 0 6.061 7.127 9.206 11.333 5zm33.545-.455C49.895 47.195 51 45.15 51 44s-1.105-3.196-2.454-4.545c-3.115-3.115-5.977-3.115-9.092 0C38.104 40.805 37 42.85 37 44s1.105 3.196 2.454 4.545C40.805 49.895 42.85 51 44 51c1.15 0 3.196-1.105 4.545-2.454zm-33.374-33.2c2.336-2.114 2.38-7.542.079-9.6-2.226-1.99-4.06-2.342-7.485-1.437C5.04 5.028 3.216 8.64 3.883 12c.925 4.661 7.636 6.65 11.288 3.345zM70.59 83.923C68.952 81.978 68 79.637 68 77.558c0-3.632 2.966-8.095 6.026-9.066C75.74 67.948 76 66.956 76 60.958c0-6.647-.112-6.964-2.97-8.443C69.458 50.67 68 48.2 68 44s1.458-6.668 5.03-8.515c2.853-1.476 2.97-1.806 2.97-8.35 0-6.33-.18-6.896-2.546-7.974-1.4-.638-3.313-2.508-4.25-4.154-1.627-2.859-2.009-2.995-8.428-3-6.448-.007-6.788.115-8.26 2.963C50.668 18.542 48.2 20 44 20c-4.235 0-6.67-1.462-8.578-5.151C32.032 8.294 36.504 1 43.912 1c4.245 0 7.834 2.203 9.126 5.601C53.882 8.819 54.481 9 60.975 9 64.84 9 68 8.585 68 8.077s1.165-2.308 2.589-4c3.517-4.18 9.833-4.382 13.775-.44 3.941 3.94 3.74 10.257-.44 13.774-1.693 1.424-3.493 2.589-4 2.589S79 23.161 79 27.025c0 6.494.181 7.093 2.399 7.937 7.442 2.829 7.442 15.247 0 18.076-2.218.844-2.399 1.443-2.399 7.937 0 3.864.415 7.025.923 7.025s2.308 1.165 4 2.589c4.18 3.517 4.382 9.833.44 13.775-3.94 3.941-10.257 3.74-13.774-.44zm13.124-3.773c1.383-5.225-1.207-9.15-6.04-9.15-7.924 0-9.29 10.792-1.673 13.216 2.806.894 6.984-1.308 7.713-4.066zm-1.657-30.994C86.846 45.277 83.668 37 77.389 37 74.094 37 71 40.39 71 44c0 5.993 6.36 8.959 11.056 5.156zM49 15c4.206-4.206 1.062-11.333-5-11.333-6.061 0-9.206 7.127-5 11.333 1.111 1.111 3.333 2 5 2s3.889-.889 5-2zm33.255.25c1.99-2.226 2.342-4.06 1.437-7.485C82.972 5.04 79.36 3.216 76 3.883c-4.661.925-6.65 7.636-3.345 11.288 2.114 2.336 7.542 2.38 9.6.08z" fill="#345971"/></svg>