<svg xmlns="http://www.w3.org/2000/svg" viewBox="0 0 88 88"><path fill="#355a72" d="M48.028 85.25c.016-.963 1.088-8.95 2.383-17.75s2.28-16.09 2.189-16.2c-.092-.11-4.202.834-9.133 2.097-4.938 1.265-13.564 4.612-19.199 7.45C18.641 63.681 13.353 66 12.518 66 11.257 66 11 64.223 11 55.5c0-8.958-.235-10.5-1.6-10.5-.88 0-3.13-1.53-5-3.4C1.498 38.698 1 37.512 1 33.5s.498-5.198 3.4-8.1c1.87-1.87 4.12-3.4 5-3.4 1.365 0 1.6-1.542 1.6-10.5C11 2.777 11.257 1 12.518 1c.835 0 6.123 2.318 11.75 5.15 14.152 7.124 21.376 8.96 38.232 9.72l14 .63.316 2.75c.26 2.26.81 2.75 3.076 2.75 1.591 0 3.68.98 4.934 2.314C86.63 26.236 87 27.818 87 33.64c0 6.036-.322 7.314-2.314 9.186C83.413 44.022 81.192 45 79.752 45c-2.114 0-2.68.53-2.936 2.75-.28 2.442-.775 2.784-4.414 3.05l-4.098.3-2.227 16.2c-1.224 8.91-2.448 16.987-2.719 17.95-.413 1.465-1.701 1.75-7.925 1.75-6.423 0-7.43-.238-7.405-1.75zM62.684 70c3.086-20.492 3.256-19.17-2.42-18.805l-4.735.305-2.19 15c-2.983 20.425-3.215 18.666 2.411 18.305l4.75-.305zM23.272 57.84C27.83 55.538 36.185 52.498 42 51.029l10.5-2.654V18.626L42 15.972c-5.815-1.47-14.171-4.509-18.728-6.813C18.747 6.872 14.81 5 14.522 5 14.235 5 14 17.825 14 33.5s.235 28.5.522 28.5c.287 0 4.225-1.872 8.75-4.16zM74 33.5V19H56v29h18zm8.545 7.045c3.468-3.468 3.468-10.622 0-14.09C77.892 21.8 77 22.935 77 33.5s.892 11.699 5.545 7.045zM11 33.5c0-9.36-.853-10.414-4.926-6.08-3.064 3.263-3.064 8.897 0 12.16C10.147 43.913 11 42.86 11 33.5z"/></svg>