<svg xmlns="http://www.w3.org/2000/svg" viewBox="0 0 88 88"><path fill="#728b9c" d="M1 44V1h86v86H1zm83 0V4H4v80h80zM37.5 73.128c-8.835-2.31-16.623-8.7-20.582-16.892-3.216-6.655-3.216-17.817 0-24.472 2.92-6.042 8.804-11.926 14.846-14.846 6.655-3.216 17.817-3.216 24.472 0 6.042 2.92 11.926 8.804 14.846 14.846 3.216 6.655 3.216 17.817 0 24.472-2.904 6.009-8.827 11.954-14.624 14.679-4.983 2.342-14.303 3.43-18.958 2.213zM54 67.921c20.95-9.472 21.247-37.709.5-47.534C37.927 12.54 18.073 25.394 18.032 44 17.992 62.189 37.695 75.293 54 67.921z"/></svg>