<svg xmlns="http://www.w3.org/2000/svg" xmlns:xlink="http://www.w3.org/1999/xlink" viewBox="0 0 305.8 222"><defs><path id="a" d="M0 0h305.8v222H0z"/></defs><clipPath id="b"><use xlink:href="#a" overflow="visible"/></clipPath><path clip-path="url(#b)" fill="#345972" d="M211 64c0 32.1-26 58.1-58.1 58.1s-58-26-58-58.1 26-58 58-58C185 6 211 31.9 211 64"/><path clip-path="url(#b)" fill="#345972" d="M152.9 2.9C186.6 2.9 214 30.3 214 64s-27.4 61.1-61.1 61.1S91.8 97.7 91.8 64s27.4-61.1 61.1-61.1m0-2.9c-35.3 0-64 28.7-64 64s28.7 64 64 64 64-28.7 64-64-28.7-64-64-64"/><path clip-path="url(#b)" fill="#FFF" d="M181.9 71.3h-43.5c-8 0-14.5-6.5-14.5-14.5h43.5c8-.1 14.5 6.4 14.5 14.5m-14.5-43.6h-29c-8 0-14.5 6.5-14.5 14.5v11h14.5v-11h43.5c0-8-6.5-14.5-14.5-14.5m0 47v11h-43.5c0 8 6.5 14.5 14.5 14.5h29c8 0 14.5-6.5 14.5-14.5v-11h-14.5z"/><path clip-path="url(#b)" fill="#345972" d="M1.8 220.5v-10.8c7.5.7 13.8 1.1 19.1 1.1 3.1 0 5.5-.1 7.2-.4 1.7-.3 3-.7 3.9-1.4.8-.6 1.3-1.3 1.5-2.2.2-.8.3-2.1.3-3.6 0-1.8-.1-3-.4-3.9-.2-.8-.7-1.4-1.5-1.8-.7-.4-1.9-.7-3.6-.9L15 195.1c-4-.5-7.1-1.6-9.3-3.1-2.2-1.5-3.7-3.5-4.5-6-.8-2.5-1.2-5.5-1.2-9.1 0-5.3 1-9.4 2.9-12.1 1.9-2.8 4.5-4.6 7.8-5.4 3.3-.8 7.5-1.3 12.6-1.3 7.9 0 14.7.6 20.4 1.8v10.5c-5.9-.8-11.8-1.2-17.7-1.2-5.5 0-9.1.5-10.8 1.4-1 .5-1.6 1.1-1.8 1.9-.2.8-.4 2-.4 3.5 0 1.8.1 3.1.4 3.9.2.8.8 1.4 1.6 1.7.8.3 2.2.6 4.1.9l14.4 1.7c2.8.3 5.1.9 6.9 1.7 1.8.8 3.2 2.2 4.3 4 1.5 2.6 2.2 6.6 2.2 12.1 0 5.8-.9 10.1-2.7 13-1.8 2.9-4.3 4.8-7.3 5.7-3.1.9-7.1 1.3-12 1.3-9.1 0-16.7-.5-23.1-1.5m71.3.8v-50.8H54.9v-11.8h49.3v11.8H86v50.8zm77.9 0l-4.5-13.5h-24.4l-4.5 13.5h-13l21.2-62.5h17.4l21.2 62.5H151zm-16.5-50.4h-.5l-8.5 25.6H143l-8.5-25.6zm39.2 49.6v-10.8c7.5.7 13.8 1.1 19.1 1.1 3.1 0 5.5-.1 7.2-.4 1.7-.3 3-.7 3.9-1.4.8-.6 1.3-1.3 1.5-2.2.2-.8.3-2.1.3-3.6 0-1.8-.1-3-.4-3.9-.2-.8-.7-1.4-1.5-1.8-.7-.4-1.9-.7-3.6-.9l-13.4-1.5c-4-.5-7.1-1.6-9.3-3.1-2.2-1.5-3.7-3.5-4.5-6-.8-2.5-1.2-5.5-1.2-9.1 0-5.3 1-9.4 2.9-12.1 1.9-2.8 4.5-4.6 7.8-5.4 3.3-.8 7.5-1.3 12.6-1.3 7.9 0 14.7.6 20.4 1.8v10.5c-5.9-.8-11.8-1.2-17.7-1.2-5.5 0-9.1.5-10.8 1.4-1 .5-1.6 1.1-1.8 1.9-.2.8-.4 2-.4 3.5 0 1.8.1 3.1.4 3.9.2.8.8 1.4 1.6 1.7.8.3 2.2.6 4.1.9l14.4 1.7c2.8.3 5.1.9 6.9 1.7 1.8.8 3.2 2.2 4.3 4 1.5 2.6 2.2 6.6 2.2 12.1 0 5.8-.9 10.1-2.7 13-1.8 2.9-4.3 4.8-7.3 5.7-3.1.9-7.1 1.3-12 1.3-9 0-16.6-.5-23-1.5m58.7-61.8h12.9v62.5h-12.9zm28.4 61.8v-10.8c7.5.7 13.8 1.1 19.1 1.1 3.1 0 5.5-.1 7.2-.4 1.7-.3 3-.7 3.9-1.4.8-.6 1.3-1.3 1.5-2.2.2-.8.3-2.1.3-3.6 0-1.8-.1-3-.4-3.9-.2-.8-.7-1.4-1.5-1.8-.7-.4-1.9-.7-3.6-.9l-13.4-1.5c-4-.5-7.1-1.6-9.3-3.1-2.2-1.5-3.7-3.5-4.5-6-.8-2.5-1.2-5.5-1.2-9.1 0-5.3 1-9.4 2.9-12.1 1.9-2.8 4.5-4.6 7.8-5.4 3.3-.8 7.5-1.3 12.6-1.3 7.9 0 14.7.6 20.4 1.8v10.5c-5.9-.8-11.8-1.2-17.7-1.2-5.5 0-9.1.5-10.8 1.4-1 .5-1.6 1.1-1.8 1.9-.2.8-.4 2-.4 3.5 0 1.8.1 3.1.4 3.9.2.8.8 1.4 1.6 1.7.8.3 2.2.6 4.1.9l14.4 1.7c2.8.3 5.1.9 6.9 1.7 1.8.8 3.2 2.2 4.3 4 1.5 2.6 2.2 6.6 2.2 12.1 0 5.8-.9 10.1-2.7 13-1.8 2.9-4.3 4.8-7.3 5.7-3.1.9-7.1 1.3-12 1.3-9 0-16.6-.5-23-1.5"/></svg>