<svg xmlns="http://www.w3.org/2000/svg" viewBox="-201.7 267.4 236.9 64"><path fill="none" d="M-161.7 295.4h-24c0 4.4 3.6 8 8 8h24c0-4.4-3.6-8-8-8zm0-16h-16c-4.4 0-8 3.6-8 8v5h8v-5h24c0-4.4-3.6-8-8-8zm111 10.5l-4.2 12.8h8.7l-4.3-12.8zm-111 21.5h-24c0 4.4 3.6 8 8 8h16c4.4 0 8-3.6 8-8v-5h-8v5z"/><path fill="#FFF" d="M-169.7 267.4c-17.7 0-32 14.3-32 32s14.3 32 32 32 32-14.3 32-32-14.3-32-32-32zm16 44c0 4.4-3.6 8-8 8h-16c-4.4 0-8-3.6-8-8h24v-5h8v5zm-24-8c-4.4 0-8-3.6-8-8h24c4.4 0 8 3.6 8 8h-24zm0-16v5h-8v-5c0-4.4 3.6-8 8-8h16c4.4 0 8 3.6 8 8h-24zm80.2 9.9c-.9-.4-2.1-.7-3.5-.8l-7.2-.9c-1-.1-1.7-.3-2.1-.4-.4-.2-.7-.4-.8-.8-.1-.4-.2-1-.2-2 0-.8.1-1.4.2-1.8.1-.4.4-.7.9-1 .9-.5 2.7-.7 5.4-.7 3 0 5.9.2 8.9.6v-5.3c-2.8-.5-6.1-.8-10.1-.8-2.6 0-4.7.2-6.3.6-1.6.4-2.9 1.3-3.9 2.7-1 1.4-1.5 3.4-1.5 6.1 0 1.8.2 3.3.6 4.6.4 1.2 1.2 2.2 2.2 3 1.1.8 2.6 1.3 4.6 1.6l6.7.8c.8.1 1.5.2 1.8.4.4.2.6.5.7.9.1.4.2 1.1.2 1.9 0 .8-.1 1.4-.2 1.8s-.4.8-.7 1.1c-.4.3-1.1.6-1.9.7-.9.1-2.1.2-3.6.2-2.6 0-5.8-.2-9.5-.5v5.4c3.2.5 7 .7 11.5.7 2.5 0 4.5-.2 6-.7 1.5-.4 2.7-1.4 3.7-2.8.9-1.5 1.4-3.6 1.4-6.5 0-2.7-.4-4.7-1.1-6-.6-1-1.3-1.7-2.2-2.1zm7.3-7.7h9V315h6.5v-25.4h9.1v-5.8h-24.6zm35.4-5.8l-10.6 31.3h6.5l2.2-6.7h12.2l2.3 6.7h6.7l-10.6-31.3h-8.7zm-.1 18.9l4.2-12.8h.2l4.3 12.8h-8.7zm43.3-5.4c-.9-.4-2.1-.7-3.5-.8l-7.2-.9c-1-.1-1.7-.3-2.1-.4-.4-.2-.7-.4-.8-.8s-.2-1-.2-2c0-.8.1-1.4.2-1.8.1-.4.4-.7.9-1 .9-.5 2.7-.7 5.4-.7 3 0 5.9.2 8.9.6v-5.3c-2.8-.6-6.2-.9-10.2-.9-2.6 0-4.7.2-6.3.6s-2.9 1.3-3.9 2.7c-1 1.4-1.5 3.4-1.5 6.1 0 1.8.2 3.3.6 4.6.4 1.2 1.2 2.2 2.2 3 1.1.8 2.6 1.3 4.6 1.6l6.7.8c.8.1 1.5.2 1.8.4.4.2.6.5.7.9.1.4.2 1.1.2 1.9 0 .8-.1 1.4-.2 1.8-.1.4-.4.8-.7 1.1-.4.3-1.1.6-1.9.7-.9.1-2.1.2-3.6.2-2.6 0-5.8-.2-9.5-.5v5.4c3.2.5 7 .7 11.5.7 2.5 0 4.5-.2 6-.7 1.5-.4 2.7-1.4 3.7-2.8.9-1.5 1.4-3.6 1.4-6.5 0-2.7-.4-4.7-1.1-6-.4-.9-1.2-1.6-2.1-2zm10.1-13.5H5v31.3h-6.5zm35.6 15.6c-.5-.9-1.2-1.6-2.1-2-.9-.4-2.1-.7-3.5-.8l-7.2-.9c-1-.1-1.7-.3-2.1-.4-.4-.2-.7-.4-.8-.8s-.2-1-.2-2c0-.8.1-1.4.2-1.8.1-.4.4-.7.9-1 .9-.5 2.7-.7 5.4-.7 3 0 5.9.2 8.9.6v-5.3c-2.8-.6-6.2-.9-10.2-.9-2.6 0-4.7.2-6.3.6s-2.9 1.3-3.9 2.7c-1 1.4-1.5 3.4-1.5 6.1 0 1.8.2 3.3.6 4.6.4 1.2 1.2 2.2 2.2 3 1.1.8 2.6 1.3 4.6 1.6l6.7.8c.8.1 1.5.2 1.8.4.4.2.6.5.7.9.1.4.2 1.1.2 1.9 0 .8-.1 1.4-.2 1.8-.1.4-.4.8-.7 1.1-.4.3-1.1.6-1.9.7-.9.1-2.1.2-3.6.2-2.6 0-5.8-.2-9.5-.5v5.4c3.2.5 7 .7 11.5.7 2.5 0 4.5-.2 6-.7 1.5-.4 2.7-1.4 3.7-2.8.9-1.5 1.4-3.6 1.4-6.5 0-2.7-.4-4.7-1.1-6z"/></svg>